<?xml version="1.0" standalone="no"?>
<!DOCTYPE svg PUBLIC "-//W3C//DTD SVG 20010904//EN"
 "http://www.w3.org/TR/2001/REC-SVG-20010904/DTD/svg10.dtd">
<svg version="1.0" xmlns="http://www.w3.org/2000/svg"
 width="64.000000pt" height="64.000000pt" viewBox="0 0 64.000000 64.000000"
 preserveAspectRatio="xMidYMid meet">

<g transform="translate(0.000000,64.000000) scale(0.100000,-0.100000)"
fill="#000000" stroke="none">
<path d="M0 622 c0 -14 7 -17 46 -13 54 4 64 -6 64 -61 l0 -38 253 0 c183 0
256 -3 265 -12 9 -9 12 5 12 65 l0 77 -320 0 c-299 0 -320 -1 -320 -18z"/>
<path d="M0 283 l0 -283 320 0 320 0 -1 233 -1 232 -26 -102 c-15 -56 -32
-107 -37 -112 -6 -6 -104 -16 -218 -22 -264 -16 -274 -32 -23 -39 l178 -5 24
-28 c13 -15 24 -39 24 -53 0 -35 -42 -74 -80 -74 -38 0 -80 39 -80 75 0 24 -2
25 -71 25 -38 0 -68 -4 -65 -9 9 -14 -15 -71 -34 -81 -33 -18 -75 -11 -100 15
-18 20 -22 32 -17 64 3 26 0 47 -10 61 -11 15 -20 78 -31 200 l-15 178 -29 4
-28 5 0 -284z"/>
</g>
</svg>
